<svg xmlns="http://www.w3.org/2000/svg" version="1.1" xmlns:xlink="http://www.w3.org/1999/xlink" xmlns:svgjs="http://svgjs.dev/svgjs" width="1000" height="1000" viewBox="0 0 1000 1000"><rect width="1000" height="1000" fill="#003366"></rect><g transform="matrix(0.7,0,0,0.7,149.57158090892023,282.13626943319844)"><svg viewBox="0 0 396 247" data-background-color="#003366" preserveAspectRatio="xMidYMid meet" height="623" width="1000" xmlns="http://www.w3.org/2000/svg" xmlns:xlink="http://www.w3.org/1999/xlink"><g id="tight-bounds" transform="matrix(1,0,0,1,0.24236280009654365,-0.09950000000000614)"><svg viewBox="0 0 395.52 247.2" height="247.2" width="395.52"><g><svg></svg></g><g><svg viewBox="0 0 395.52 247.2" height="247.2" width="395.52"><g><g><path xmlns="http://www.w3.org/2000/svg" d="M253.11 9.031c1.095 0 1.643 1.232 1.643 3.697l4.313 35.6c0.456 2.191 0.685 3.606 0.685 4.244 0 0.593-0.867 0.89-2.601 0.89-1.689 0-2.761-0.205-3.218-0.616-0.456-0.456-0.913-1.209-1.369-2.259-0.456-1.095-0.981-2.305-1.575-3.629-0.593-1.324-1.232-2.647-1.917-3.97-2.328-5.157-6.002-10.246-11.022-15.267-12.277-11.775-26.106-17.663-41.487-17.663-9.219 0-17.959 2.989-26.22 8.969-8.261 6.025-12.391 13.144-12.392 21.359 0 8.17 1.552 15.267 4.656 21.291 1.733 3.415 3.782 6.684 6.146 9.806l-34.393 0c-1.616-5.547-2.424-11.303-2.424-17.268 0-15.883 6.321-28.89 18.964-39.022 12.642-10.132 27.156-15.198 43.541-15.199 8.443 0 17.777 1.46 28 4.382 10.178 2.875 17.275 4.815 21.291 5.819zM268.445 184.838c0 18.941-7.257 34.071-21.77 45.389-14.559 11.319-31.469 16.978-50.729 16.978-12.369 0-22.204-1.255-29.507-3.765-7.302-2.51-12.346-4.313-15.129-5.408-2.784-1.141-4.815-1.712-6.093-1.712-1.278 0-2.099 0.068-2.465 0.206l-8.147 1.643c-1.46 0-2.35-1.164-2.67-3.492-3.24-27.658-4.861-42.331-4.861-44.02 0-1.734 0.137-2.921 0.411-3.56 0.274-0.593 1.027-0.89 2.259-0.89 3.104 0 5.933 4.45 8.49 13.35 11.73 25.057 31.172 37.585 58.328 37.585 12.505 0 23.185-3.788 32.039-11.365 8.854-7.576 13.281-17.435 13.282-29.575 0-7.004-1.511-13.832-4.535-20.485h30.011c0.541 2.985 0.903 6.025 1.086 9.121z" fill="#6e7276" fill-rule="nonzero" stroke="none" stroke-width="1" stroke-linecap="butt" stroke-linejoin="miter" stroke-miterlimit="10" stroke-dasharray="" stroke-dashoffset="0" font-family="none" font-weight="none" font-size="none" text-anchor="none" style="mix-blend-mode: normal" data-fill-palette-color="tertiary"></path></g></g><g transform="matrix(1,0,0,1,2.842170943040401e-14,84.75429742578851)"><svg viewBox="0 0 395.5199999999999 77.69140514842296" height="77.69140514842296" width="395.5199999999999"><g><svg viewBox="0 0 515.8813778048394 101.33381151790664" height="77.69140514842296" width="395.5199999999999"><g transform="matrix(1,0,0,1,120.36137780483944,14.004890014414016)"><svg viewBox="0 0 395.52 73.3240314890786" height="73.3240314890786" width="395.52"><g id="textblocktransform"><svg viewBox="0 0 395.52 73.3240314890786" height="73.3240314890786" width="395.52" id="textblock"><g><svg viewBox="0 0 395.52 73.3240314890786" height="73.3240314890786" width="395.52"><g transform="matrix(1,0,0,1,0,0)"><svg width="395.52" viewBox="2.200000047683716 -40.15999984741211 220.1699981689453 40.81999969482422" height="73.3240314890786" data-palette-color="#ffffff"><path d="M19.24-33.96L20.61-34.13Q20.85-34.13 20.85-33.59L20.85-33.59 21.48-28.39Q21.58-27.91 21.58-27.77 21.58-27.64 21.2-27.64 20.83-27.64 20.73-27.73 20.63-27.83 20.53-28.06 20.43-28.3 20.3-28.59 20.17-28.88 20.02-29.17L20.02-29.17Q19.51-30.3 18.41-31.4L18.41-31.4Q15.72-33.98 12.35-33.98L12.35-33.98Q10.33-33.98 8.52-32.67 6.71-31.35 6.71-29.55 6.71-27.76 7.39-26.44 8.06-25.12 9.16-24 10.25-22.88 11.67-21.85 13.09-20.83 14.55-19.78L14.55-19.78Q18.43-17.07 20.07-15.14L20.07-15.14Q22.63-12.16 22.85-8.45L22.85-8.45Q22.85-4.3 19.67-1.82 16.48 0.66 12.26 0.66L12.26 0.66Q9.55 0.66 7.95 0.11 6.35-0.44 5.74-0.68 5.13-0.93 4.85-0.93 4.57-0.93 4.49-0.9L4.49-0.9 3.3-0.66Q2.98-0.66 2.91-1.17L2.91-1.17Q2.2-7.23 2.2-7.6 2.2-7.98 2.26-8.12 2.32-8.25 2.59-8.25L2.59-8.25Q3.27-8.25 3.83-6.3L3.83-6.3Q6.4-0.81 12.35-0.81L12.35-0.81Q15.09-0.81 17.03-2.47 18.97-4.13 18.97-6.79L18.97-6.79Q18.97-11.04 13.89-14.7L13.89-14.7Q12.45-15.72 9.74-17.55 7.03-19.38 5.42-21.22L5.42-21.22Q2.91-24.05 2.91-27.53 2.91-31.01 5.68-33.23 8.45-35.45 12.04-35.45L12.04-35.45Q13.89-35.45 16.13-34.81 18.36-34.18 19.24-33.96L19.24-33.96ZM40.04-18.77L32.69-18.77Q32.54-18.77 32.54-18.55L32.54-18.55 32.54-5.08Q32.54-3.61 33.19-2.78 33.84-1.95 34.84-1.95 35.84-1.95 36.58-2.28 37.33-2.61 37.88-3 38.43-3.39 38.86-3.72 39.3-4.05 39.65-4.05 39.99-4.05 39.99-3.88L39.99-3.88Q39.99-3.3 39.87-3.13L39.87-3.13Q36.94 0.66 34.21 0.66 31.49 0.66 30.11-1.06 28.73-2.78 28.73-5.18L28.73-5.18 28.73-18.77 26.9-18.77Q26.22-18.77 26.18-19.21 26.14-19.65 26.32-19.78L26.32-19.78Q27.61-20.61 29.88-22.75L29.88-22.75Q30.12-23.02 30.54-23.56 30.95-24.1 31.75-25.02 32.54-25.95 32.96-25.95 33.37-25.95 33.37-25.61L33.37-25.61Q33.37-25.56 32.54-22.41L32.54-22.41Q32.54-21.97 32.93-21.95L32.93-21.95 39.16-21.95Q40.23-21.95 40.23-18.92L40.23-18.92Q40.23-18.77 40.04-18.77L40.04-18.77ZM42.67-10.97Q42.67-15.77 46.08-19.23 49.48-22.68 54.24-22.68 59-22.68 62.52-19.32 66.04-15.97 66.04-11.04 66.04-6.1 62.7-2.72 59.37 0.66 54.34 0.66 49.31 0.66 45.99-2.76 42.67-6.18 42.67-10.97ZM48.75-4.69L48.75-4.69Q51.14-0.66 55.27-0.66L55.27-0.66Q58.47-0.66 60.16-3.22 61.86-5.79 61.86-9.52 61.86-13.26 59.48-17.19 57.1-21.12 53.07-21.12L53.07-21.12Q50.12-21.12 48.42-18.57 46.72-16.02 46.72-12.1 46.72-8.18 48.75-4.69ZM88.74-19.7L88.74-19.7Q88.74-17.99 86.76-17.99L86.76-17.99Q85.76-17.99 85.06-18.57 84.37-19.14 83.99-19.54 83.61-19.95 83.2-20.29L83.2-20.29Q81.44-21.73 78.91-20.61 76.38-19.48 75.02-15.82L75.02-15.82Q74.26-13.79 74.26-11.79L74.26-11.79Q74.26-7.5 76.21-4.77 78.17-2.05 82.19-2.05L82.19-2.05Q85.2-2.05 87.59-4.74L87.59-4.74Q88.32-5.54 88.47-5.54 88.62-5.54 88.79-5.4 88.96-5.25 88.96-4.97 88.96-4.69 88.81-4.54L88.81-4.54Q85.08 0.66 79.41 0.66L79.41 0.66Q75.31 0.66 72.69-2.39 70.06-5.44 70.06-9.38L70.06-9.38Q70.09-16.65 73.58-19.85L73.58-19.85Q76.65-22.66 82.34-22.66L82.34-22.66Q85.86-22.66 87-21.95 88.15-21.24 88.62-20.17L88.62-20.17Q88.74-19.92 88.74-19.7ZM99.65-11.69L99.62-11.69Q99.33-11.69 99.33-10.5L99.33-10.5 99.33-3.71Q99.33-1.32 101.97-0.93L101.97-0.93Q103.12-0.78 103.12-0.39 103.12 0 102.87 0L102.87 0 91.98 0Q91.74-0.05 91.74-0.34L91.74-0.34Q91.74-0.78 92.89-0.93L92.89-0.93Q95.52-1.32 95.52-3.71L95.52-3.71 95.52-34.16Q95.52-35.18 94.4-35.57L94.4-35.57Q93.91-35.74 93.35-35.85 92.79-35.96 92.46-36.06 92.13-36.16 92.04-36.24 91.96-36.33 91.96-36.61 91.96-36.89 92.32-37.08L92.32-37.08 98.55-40.01Q98.84-40.16 98.92-40.16L98.92-40.16Q99.33-40.16 99.33-39.58L99.33-39.58 99.33-15.21Q99.53-14.5 99.84-14.38 100.16-14.26 100.53-14.26L100.53-14.26Q101.24-14.26 102.86-15.37 104.48-16.48 105.8-17.86 107.12-19.24 107.12-19.76 107.12-20.29 106.66-20.42 106.19-20.56 105.62-20.62 105.04-20.68 104.58-20.81 104.12-20.95 104.12-21.46 104.12-21.97 105.12-21.97L105.12-21.97 114.42-21.97Q115.27-21.97 115.27-21.41L115.27-21.41Q115.27-21.12 114.71-20.95 114.15-20.78 112.54-20.42 110.93-20.07 109.98-19.31L109.98-19.31 102.97-13.84Q102.97-13.53 103.43-13.06L103.43-13.06 113.47-2.49Q114.44-1.49 115.47-1.18 116.49-0.88 116.84-0.78 117.18-0.68 117.18-0.44L117.18-0.44Q117.18 0 116.79 0L116.79 0 106.07 0Q105.82 0 105.82-0.29L105.82-0.29Q105.82-0.73 106.44-0.85L106.44-0.85Q108.27-1.2 108.27-2.1L108.27-2.1Q108.27-2.37 107.9-2.81 107.53-3.25 107.22-3.66L107.22-3.66 99.67-11.65Q99.67-11.67 99.65-11.69L99.65-11.69ZM132.41-18.77L125.06-18.77Q124.91-18.77 124.91-18.55L124.91-18.55 124.91-5.08Q124.91-3.61 125.56-2.78 126.21-1.95 127.21-1.95 128.21-1.95 128.95-2.28 129.7-2.61 130.25-3 130.8-3.39 131.24-3.72 131.68-4.05 132.02-4.05 132.36-4.05 132.36-3.88L132.36-3.88Q132.36-3.3 132.24-3.13L132.24-3.13Q129.31 0.66 126.59 0.66 123.86 0.66 122.49-1.06 121.11-2.78 121.11-5.18L121.11-5.18 121.11-18.77 119.27-18.77Q118.59-18.77 118.55-19.21 118.52-19.65 118.69-19.78L118.69-19.78Q119.98-20.61 122.25-22.75L122.25-22.75Q122.5-23.02 122.91-23.56 123.33-24.1 124.12-25.02 124.91-25.95 125.33-25.95 125.74-25.95 125.74-25.61L125.74-25.61Q125.74-25.56 124.91-22.41L124.91-22.41Q124.91-21.97 125.3-21.95L125.3-21.95 131.53-21.95Q132.6-21.95 132.6-18.92L132.6-18.92Q132.6-18.77 132.41-18.77L132.41-18.77ZM149.77-17.5L149.77-17.5Q149.47-17.55 148.91-17.82L148.91-17.82Q146.88-18.75 145.74-18.75 144.59-18.75 143.33-17.32 142.07-15.89 142.07-14.75L142.07-14.75 142.07-3.71Q142.07-1.88 144.2-1.27L144.2-1.27Q145.13-1.03 145.93-0.92 146.74-0.81 146.97-0.71 147.2-0.61 147.2-0.33 147.2-0.05 146.96 0L146.96 0 134.73 0Q134.48-0.05 134.48-0.34L134.48-0.34Q134.48-0.78 135.63-0.93L135.63-0.93Q138.27-1.32 138.27-3.71L138.27-3.71 138.27-16.63Q138.27-17.65 137.14-18.04L137.14-18.04Q136.65-18.21 136.09-18.32 135.53-18.43 135.2-18.53 134.87-18.63 134.79-18.71 134.7-18.8 134.7-19.08 134.7-19.36 135.07-19.56L135.07-19.56 141.29-22.49Q141.59-22.63 141.66-22.63L141.66-22.63Q142.07-22.63 142.07-22.05L142.07-22.05 142.07-18.09Q142.07-17.8 142.22-17.8L142.22-17.8Q142.42-17.8 143.22-18.95L143.22-18.95Q145.54-22.19 147.06-22.19L147.06-22.19Q147.91-22.19 149.68-21.51 151.45-20.83 151.45-20.36L151.45-20.36Q151.45-19.8 150.89-18.65 150.33-17.5 149.77-17.5ZM168.24-4.03Q168.24-3.39 168.84-3.02 169.44-2.64 170.22-2.64 171-2.64 171.53-3.04 172.05-3.44 172.25-3.44 172.44-3.44 172.44-2.92 172.44-2.39 171.96-2.03L171.96-2.03Q168.29 0.66 167 0.66L167 0.66Q165.44 0.66 164.46-2.59L164.46-2.59Q164.39-2.83 164.34-2.81L164.34-2.81Q161.31-0.54 160.53-0.07L160.53-0.07Q158.53 1.07 156.51 0.29 154.5-0.49 153.6-2.29L153.6-2.29Q153.16-3.22 153.16-4.27L153.16-4.27Q153.16-6.35 154.69-7.57 156.23-8.79 160.55-9.91L160.55-9.91Q162.02-10.3 163.17-10.91 164.31-11.52 164.37-11.69 164.44-11.87 164.44-12.01L164.44-12.01 164.44-16.7Q164.44-19.46 162.29-20.58L162.29-20.58Q161.58-20.95 160.59-20.95 159.6-20.95 158.59-20.17 157.58-19.38 157.58-17.94L157.58-17.94 157.7-16.99Q157.55-16.7 155.94-16.02 154.33-15.33 154.08-15.28L154.08-15.28Q153.69-15.28 153.69-16.22 153.69-17.16 154.25-18.31 154.82-19.46 155.84-20.41L155.84-20.41Q158.23-22.63 161.31-22.63 164.39-22.63 166.32-20.94 168.24-19.24 168.24-16.89L168.24-16.89 168.24-4.03ZM156.99-4.74Q156.99-3.56 157.89-2.7 158.8-1.83 159.96-1.83 161.12-1.83 162.78-2.82 164.44-3.81 164.44-4.86L164.44-4.86 164.44-9.81Q164.44-10.08 164.31-10.08 164.19-10.08 164.14-10.06L164.14-10.06 158.48-7.42Q157.6-6.79 157.29-6.35 156.99-5.91 156.99-4.74ZM193.93-19.7L193.93-19.7Q193.93-17.99 191.95-17.99L191.95-17.99Q190.95-17.99 190.25-18.57 189.56-19.14 189.18-19.54 188.8-19.95 188.38-20.29L188.38-20.29Q186.63-21.73 184.1-20.61 181.57-19.48 180.2-15.82L180.2-15.82Q179.45-13.79 179.45-11.79L179.45-11.79Q179.45-7.5 181.4-4.77 183.35-2.05 187.38-2.05L187.38-2.05Q190.39-2.05 192.78-4.74L192.78-4.74Q193.51-5.54 193.66-5.54 193.8-5.54 193.97-5.4 194.15-5.25 194.15-4.97 194.15-4.69 194-4.54L194-4.54Q190.26 0.66 184.6 0.66L184.6 0.66Q180.5 0.66 177.87-2.39 175.25-5.44 175.25-9.38L175.25-9.38Q175.27-16.65 178.76-19.85L178.76-19.85Q181.84-22.66 187.53-22.66L187.53-22.66Q191.04-22.66 192.19-21.95 193.34-21.24 193.8-20.17L193.8-20.17Q193.93-19.92 193.93-19.7ZM204.84-11.69L204.81-11.69Q204.52-11.69 204.52-10.5L204.52-10.5 204.52-3.71Q204.52-1.32 207.16-0.93L207.16-0.93Q208.3-0.78 208.3-0.39 208.3 0 208.06 0L208.06 0 197.17 0Q196.93-0.05 196.93-0.34L196.93-0.34Q196.93-0.78 198.07-0.93L198.07-0.93Q200.71-1.32 200.71-3.71L200.71-3.71 200.71-34.16Q200.71-35.18 199.59-35.57L199.59-35.57Q199.1-35.74 198.54-35.85 197.98-35.96 197.65-36.06 197.32-36.16 197.23-36.24 197.15-36.33 197.15-36.61 197.15-36.89 197.51-37.08L197.51-37.08 203.74-40.01Q204.03-40.16 204.1-40.16L204.1-40.16Q204.52-40.16 204.52-39.58L204.52-39.58 204.52-15.21Q204.71-14.5 205.03-14.38 205.35-14.26 205.71-14.26L205.71-14.26Q206.42-14.26 208.05-15.37 209.67-16.48 210.99-17.86 212.31-19.24 212.31-19.76 212.31-20.29 211.84-20.42 211.38-20.56 210.81-20.62 210.23-20.68 209.77-20.81 209.3-20.95 209.3-21.46 209.3-21.97 210.3-21.97L210.3-21.97 219.61-21.97Q220.46-21.97 220.46-21.41L220.46-21.41Q220.46-21.12 219.9-20.95 219.34-20.78 217.73-20.42 216.12-20.07 215.16-19.31L215.16-19.31 208.16-13.84Q208.16-13.53 208.62-13.06L208.62-13.06 218.65-2.49Q219.63-1.49 220.66-1.18 221.68-0.88 222.02-0.78 222.37-0.68 222.37-0.44L222.37-0.44Q222.37 0 221.97 0L221.97 0 211.26 0Q211.01 0 211.01-0.29L211.01-0.29Q211.01-0.73 211.62-0.85L211.62-0.85Q213.45-1.2 213.45-2.1L213.45-2.1Q213.45-2.37 213.09-2.81 212.72-3.25 212.4-3.66L212.4-3.66 204.86-11.65Q204.86-11.67 204.84-11.69L204.84-11.69Z" opacity="1" transform="matrix(1,0,0,1,0,0)" fill="#ffffff" class="wordmark-text-0" data-fill-palette-color="primary" id="text-0"></path></svg></g></svg></g></svg></g></svg></g><g><svg viewBox="0 0 103.0513337470237 101.33381151790664" height="101.33381151790664" width="103.0513337470237"><g><svg xmlns="http://www.w3.org/2000/svg" data-name="OutLine EX" viewBox="2 3 60 59" x="0" y="0" height="101.33381151790664" width="103.0513337470237" class="icon-icon-0" data-fill-palette-color="accent" id="icon-0"><path d="M61 22H35V9h2a1 1 0 0 0 1-1V4a1 1 0 0 0-1-1H3A1 1 0 0 0 2 4V8A1 1 0 0 0 3 9H5V22H3a1 1 0 0 0-1 1v4a1 1 0 0 0 1 1H5V41H3a1 1 0 0 0-1 1v4a1 1 0 0 0 1 1H5V61a1 1 0 0 0 1 1H58a1 1 0 0 0 1-1V28h2a1 1 0 0 0 1-1V23A1 1 0 0 0 61 22ZM40 26H28V24H40ZM18 24h4V41H18Zm8 2H24V24h2Zm3 17v2H24V43Zm-5 4h5V60H24Zm5-6H24V28h5Zm4-19H24V9h9ZM36 7H24V5H36ZM22 5V22H18V5ZM4 5H16V7H4ZM7 9h9V22H7ZM4 24H16v2H4Zm3 4h9V41H7ZM4 43H16v2H4Zm3 4h9V60H7ZM18 60V43h4V60ZM31 46V28h9V60H31ZM42 60V24h4V60Zm15 0H48V28h9Zm3-34H48V24H60Z" fill="#ff9966" data-fill-palette-color="accent"></path><path d="M56.293 5.293l-1.36 1.36A7.968 7.968 0 1 0 56.1 8.319l1.612-1.612ZM55 12a6.019 6.019 0 1 1-1.48-3.934L49 12.586l-2.293-2.293-1.414 1.414 3 3a1 1 0 0 0 1.414 0l4.88-4.88A5.969 5.969 0 0 1 55 12Z" fill="#ff9966" data-fill-palette-color="accent"></path></svg></g></svg></g></svg></g></svg></g></svg></g><defs></defs></svg><rect width="395.52" height="247.2" fill="none" stroke="none" visibility="hidden"></rect></g></svg></g></svg>